<svg xmlns="http://www.w3.org/2000/svg" viewBox="0 0 128 128" role="img" aria-labelledby="title">
  <title id="title">道法自然品牌印记</title>
  <rect width="128" height="128" rx="18" fill="#f4f1e9"/>
  <circle cx="64" cy="64" r="45" fill="none" stroke="#a6463b" stroke-width="6"/>
  <path d="M34 76c14-4 20-17 30-34 9 17 16 28 30 34-11 2-20 8-30 18-10-10-19-16-30-18Z" fill="#253c35"/>
  <path d="M43 76c10-2 17-9 21-19 5 10 12 17 21 19-9 2-15 6-21 12-6-6-12-10-21-12Z" fill="#f4f1e9"/>
  <circle cx="64" cy="53" r="5" fill="#a6463b"/>
</svg>
